<svg width="3527.004" height="1005.016" viewBox="0 0 3527.004 1005.016" xmlns="http://www.w3.org/2000/svg"><g id="svgGroup" stroke-linecap="round" fill-rule="nonzero" font-size="9pt" stroke="#000" stroke-width="0.25mm" fill="#000" style="stroke:#000;stroke-width:0.25mm;fill:#000"><path d="M 2258.004 378.006 L 2178.004 755.006 L 2034.004 755.006 L 2170.004 119.006 L 2318.004 99.006 L 2269.004 330.006 L 2277.004 330.006 Q 2316.004 330.006 2349.004 303.006 Q 2382.004 276.006 2400.504 235.506 A 210.076 210.076 0 0 0 2415.205 191.657 A 172.102 172.102 0 0 0 2419.004 156.006 A 125.892 125.892 0 0 0 2414.289 120.741 A 98.497 98.497 0 0 0 2391.504 80.506 Q 2364.004 51.006 2309.004 51.006 A 383.47 383.47 0 0 0 2237.461 57.378 A 288.743 288.743 0 0 0 2167.004 80.006 Q 2106.004 109.006 2072.504 164.006 A 227.553 227.553 0 0 0 2042.275 249.084 A 298.241 298.241 0 0 0 2039.004 294.006 Q 2039.004 331.006 2046.004 345.506 Q 2053.004 360.006 2053.004 362.006 A 208.609 208.609 0 0 1 2024.804 360.226 Q 1991.551 355.678 1972.504 339.506 A 67.452 67.452 0 0 1 1953.265 311.361 Q 1946.004 292.224 1946.004 265.006 A 165.297 165.297 0 0 1 1965.499 188.305 Q 1977.215 165.649 1995.972 143.462 A 301.541 301.541 0 0 1 1998.504 140.506 Q 2051.004 80.006 2133.004 42.506 A 414.656 414.656 0 0 1 2235.504 10.279 A 363.228 363.228 0 0 1 2297.004 5.006 A 426.938 426.938 0 0 1 2349.879 8.099 Q 2391.129 13.256 2423.004 27.006 A 216.124 216.124 0 0 1 2459.834 47.056 Q 2484.062 63.691 2499.004 85.506 Q 2524.004 122.006 2524.004 165.006 A 163.803 163.803 0 0 1 2510.913 228.162 A 217.275 217.275 0 0 1 2495.004 259.006 Q 2466.004 306.006 2416.004 336.006 Q 2454.004 347.006 2469.504 372.506 A 101.634 101.634 0 0 1 2481.598 403.127 Q 2484.552 416.192 2484.944 431.323 A 180.705 180.705 0 0 1 2485.004 436.006 Q 2485.004 465.006 2478.004 497.506 Q 2471.173 529.22 2458.629 575.694 A 2809.342 2809.342 0 0 1 2458.004 578.006 Q 2450.004 609.006 2443.004 639.006 A 343.412 343.412 0 0 0 2439.019 658.449 Q 2436.004 675.881 2436.004 689.006 A 86.131 86.131 0 0 0 2439.326 713.299 A 74.602 74.602 0 0 0 2446.504 730.006 Q 2457.004 748.006 2475.004 755.006 A 640.749 640.749 0 0 1 2439.125 763.971 Q 2402.129 772.006 2376.004 772.006 A 132.141 132.141 0 0 1 2346.628 769.038 Q 2306.029 759.743 2299.328 721.329 A 95.052 95.052 0 0 1 2298.004 705.006 A 180.659 180.659 0 0 1 2299.248 684.512 Q 2300.448 674.031 2302.804 662.393 A 330.151 330.151 0 0 1 2304.504 654.506 A 1248.959 1248.959 0 0 1 2308.098 639.224 Q 2313.173 618.197 2320.534 590.314 A 3845.126 3845.126 0 0 1 2323.004 581.006 Q 2332.629 548.693 2338.945 522.998 A 707.108 707.108 0 0 0 2344.004 501.006 Q 2351.004 468.006 2351.004 442.006 A 112.182 112.182 0 0 0 2348.334 416.344 Q 2340.118 381.513 2306.618 375.337 A 86.191 86.191 0 0 0 2291.004 374.006 A 140.029 140.029 0 0 0 2264.869 376.546 A 161.156 161.156 0 0 0 2258.004 378.006 Z M 803.004 576.006 A 168.714 168.714 0 0 1 794.762 598.965 A 130.463 130.463 0 0 1 767.004 639.506 A 100.638 100.638 0 0 1 750.988 652.426 A 69.234 69.234 0 0 1 713.004 664.006 A 107.893 107.893 0 0 1 710.28 663.972 Q 698.194 663.667 690.166 660.602 A 27.59 27.59 0 0 1 681.504 655.506 Q 672.004 647.006 672.004 627.006 A 139.154 139.154 0 0 1 672.195 619.664 A 120.049 120.049 0 0 1 676.004 595.006 L 740.004 295.006 L 800.004 295.006 L 808.004 255.006 L 748.004 255.006 L 782.004 97.006 L 634.004 117.006 L 604.004 255.006 L 571.004 255.006 L 563.004 295.006 L 596.004 295.006 L 536.004 576.006 Q 530.504 603.506 528.785 623.916 A 204.781 204.781 0 0 0 528.004 641.006 Q 528.004 671.943 535.847 694.905 A 93.848 93.848 0 0 0 557.504 731.006 A 96.34 96.34 0 0 0 599.691 756.243 A 124.692 124.692 0 0 0 635.004 761.006 A 182.989 182.989 0 0 0 702.144 747.788 A 254.972 254.972 0 0 0 750.004 722.506 A 142.164 142.164 0 0 0 754.797 719.18 Q 809.544 679.51 845.004 576.006 L 803.004 576.006 L 871.004 255.006 L 1015.004 255.006 L 943.004 595.006 Q 940.004 607.006 940.004 620.006 A 95.511 95.511 0 0 0 941.148 635.515 Q 945.863 664.006 970.004 664.006 A 56.701 56.701 0 0 0 1006.967 650.273 A 81.575 81.575 0 0 0 1016.004 641.506 A 135.851 135.851 0 0 0 1033.753 615.845 Q 1041.91 600.795 1048.004 582.006 L 1118.004 255.006 L 1262.004 255.006 L 1163.004 719.006 A 204.444 204.444 0 0 0 1203.829 700.49 A 158.926 158.926 0 0 0 1240.004 671.006 Q 1260.933 647.912 1277.174 608.673 A 409.533 409.533 0 0 0 1289.004 576.006 M 155.237 768.172 A 233.598 233.598 0 0 1 100.004 751.006 A 188.303 188.303 0 0 1 55.355 722.814 A 159.196 159.196 0 0 1 26.004 689.506 Q 0.004 650.006 0.004 598.006 Q 0.004 554.006 18.504 518.006 Q 37.004 482.006 68.504 461.006 Q 100.004 440.006 138.004 440.006 A 116.112 116.112 0 0 1 166.051 443.237 A 87.941 87.941 0 0 1 197.004 457.506 Q 221.004 475.006 227.004 506.006 Q 179.688 506.006 149.76 528.774 A 98.95 98.95 0 0 0 144.004 533.506 A 90.547 90.547 0 0 0 113.941 592.255 A 128.411 128.411 0 0 0 113.004 608.006 A 115.366 115.366 0 0 0 116.814 638.436 A 85.271 85.271 0 0 0 139.004 677.006 Q 165.004 703.006 208.004 703.006 A 129.54 129.54 0 0 0 252.237 695.717 A 113.427 113.427 0 0 0 295.504 667.506 A 120.819 120.819 0 0 0 329.648 588.784 A 160.67 160.67 0 0 0 330.004 578.006 Q 330.004 531.006 304.004 489.006 A 502.859 502.859 0 0 0 285.215 460.998 Q 261.754 428.256 226.004 387.006 A 1329.997 1329.997 0 0 1 194.842 349.965 Q 179.126 330.532 166.541 313.167 A 538.496 538.496 0 0 1 144.504 280.506 Q 117.004 236.006 117.004 183.006 Q 117.004 131.006 146.004 89.506 A 190.334 190.334 0 0 1 204.744 35.343 A 235.291 235.291 0 0 1 226.004 24.006 Q 277.004 0.006 341.004 0.006 A 280.253 280.253 0 0 1 394.483 4.807 Q 425.256 10.793 449.648 24.24 A 155.363 155.363 0 0 1 470.504 38.006 A 121.092 121.092 0 0 1 518.421 126.287 A 158.358 158.358 0 0 1 519.004 140.006 Q 519.004 182.006 498.004 208.006 A 66.625 66.625 0 0 1 449.776 233.738 A 84.068 84.068 0 0 1 443.004 234.006 A 74.834 74.834 0 0 1 409.711 226.733 Q 394.978 219.535 383.691 205.213 A 95.503 95.503 0 0 1 382.004 203.006 A 95.28 95.28 0 0 0 409.129 171.615 A 113.288 113.288 0 0 0 412.004 166.006 Q 423.004 143.006 423.004 118.006 A 87.151 87.151 0 0 0 420.346 95.887 A 62.372 62.372 0 0 0 404.004 67.006 A 62.988 62.988 0 0 0 372.375 50.1 A 93.724 93.724 0 0 0 352.004 48.006 A 91.36 91.36 0 0 0 318.21 54.061 A 83.191 83.191 0 0 0 286.504 76.506 A 98.875 98.875 0 0 0 262.405 129.232 A 134.946 134.946 0 0 0 261.004 149.006 Q 261.004 189.006 284.004 223.506 A 441.028 441.028 0 0 0 300.918 246.973 Q 322.316 274.881 356.004 312.006 A 1914.048 1914.048 0 0 1 375.035 332.756 Q 401.256 361.789 419.311 384.5 A 673.138 673.138 0 0 1 420.504 386.006 A 303.446 303.446 0 0 1 452.106 435.476 A 361.261 361.261 0 0 1 462.504 457.506 Q 480.004 498.006 480.004 545.006 Q 480.004 609.006 444.504 661.006 A 239.625 239.625 0 0 1 362.927 734.906 A 289.354 289.354 0 0 1 347.504 743.006 A 299.235 299.235 0 0 1 236.386 772.12 A 358.614 358.614 0 0 1 211.004 773.006 A 307.588 307.588 0 0 1 155.237 768.172 Z M 1289.004 576.006 Q 1283.504 603.506 1281.785 623.916 A 204.781 204.781 0 0 0 1281.004 641.006 Q 1281.004 671.943 1288.847 694.905 A 93.848 93.848 0 0 0 1310.504 731.006 A 96.34 96.34 0 0 0 1352.691 756.243 A 124.692 124.692 0 0 0 1388.004 761.006 A 182.989 182.989 0 0 0 1455.144 747.788 A 254.972 254.972 0 0 0 1503.004 722.506 A 142.164 142.164 0 0 0 1507.797 719.18 Q 1562.544 679.51 1598.004 576.006 L 1556.004 576.006 A 168.714 168.714 0 0 1 1547.762 598.965 A 130.463 130.463 0 0 1 1520.004 639.506 A 100.638 100.638 0 0 1 1503.988 652.426 A 69.234 69.234 0 0 1 1466.004 664.006 A 107.893 107.893 0 0 1 1463.28 663.972 Q 1451.194 663.667 1443.166 660.602 A 27.59 27.59 0 0 1 1434.504 655.506 Q 1425.004 647.006 1425.004 627.006 A 139.154 139.154 0 0 1 1425.195 619.664 A 120.049 120.049 0 0 1 1429.004 595.006 L 1544.004 55.006 L 1396.004 75.006 L 1289.004 576.006 L 1331.004 576.006 A 441.423 441.423 0 0 1 1312.273 626.992 Q 1300.951 652.483 1287.384 672.362 A 189.666 189.666 0 0 1 1258.004 706.506 Q 1212.004 748.006 1154.004 763.006 L 1139.004 835.006 A 383.316 383.316 0 0 1 1125.46 884.783 Q 1105.223 942.271 1070.004 968.506 Q 1021.004 1005.006 959.004 1005.006 A 151.925 151.925 0 0 1 921.674 1000.638 A 113.733 113.733 0 0 1 879.004 980.006 A 81.132 81.132 0 0 1 848.324 926.192 A 120.351 120.351 0 0 1 847.004 908.006 A 113.534 113.534 0 0 1 857.451 858.788 Q 868.209 836.078 890.043 818.787 A 142.188 142.188 0 0 1 893.004 816.506 A 323.952 323.952 0 0 1 941.622 786.689 Q 972.285 771.224 1010.004 759.006 L 1022.004 705.006 Q 993.004 737.006 963.004 749.006 Q 933.004 761.006 902.004 761.006 A 124.692 124.692 0 0 1 866.691 756.243 A 96.34 96.34 0 0 1 824.504 731.006 A 93.848 93.848 0 0 1 802.847 694.905 Q 795.004 671.943 795.004 641.006 A 204.781 204.781 0 0 1 795.785 623.916 Q 797.504 603.506 803.004 576.006 M 1940.004 576.006 L 1974.004 576.006 A 514.353 514.353 0 0 1 1907.374 665.434 Q 1860.005 715.46 1805.135 739.3 A 263.446 263.446 0 0 1 1699.004 761.006 A 228.528 228.528 0 0 1 1653.009 756.661 Q 1625.266 750.957 1603.939 737.767 A 125.394 125.394 0 0 1 1584.004 722.506 Q 1550.973 691.489 1544.553 632.238 A 280.96 280.96 0 0 1 1543.004 602.006 Q 1543.004 537.318 1566.734 460.326 A 697.383 697.383 0 0 1 1570.004 450.006 Q 1597.004 367.006 1658.004 306.506 A 206.408 206.408 0 0 1 1792.836 246.729 A 276.198 276.198 0 0 1 1813.004 246.006 A 183.393 183.393 0 0 1 1854.516 250.277 Q 1923.004 266.256 1923.004 342.006 Q 1923.004 398.006 1891.004 445.006 A 235.242 235.242 0 0 1 1809.296 518.706 A 273.952 273.952 0 0 1 1806.004 520.506 Q 1753.004 549.006 1693.004 553.006 A 2161.281 2161.281 0 0 0 1692.225 565.174 Q 1691.004 585.193 1691.004 593.006 A 221.067 221.067 0 0 0 1692.033 615.215 Q 1694.279 637.358 1701.424 650.423 A 41.532 41.532 0 0 0 1708.004 659.506 Q 1720.641 672.514 1744.882 675.853 A 133.136 133.136 0 0 0 1763.004 677.006 A 194.804 194.804 0 0 0 1808.759 671.873 A 149.422 149.422 0 0 0 1855.504 652.006 A 304.343 304.343 0 0 0 1885.434 629.599 Q 1911.254 607.881 1940.004 576.006 Z M 1701.004 505.006 A 127.329 127.329 0 0 0 1758.551 487.387 A 159.529 159.529 0 0 0 1771.504 479.006 Q 1805.004 455.006 1825.504 418.006 Q 1846.004 381.006 1846.004 340.006 A 100.565 100.565 0 0 0 1845.125 326.072 Q 1842.893 310.207 1834.99 303.641 A 21.149 21.149 0 0 0 1821.004 299.006 Q 1790.122 299.006 1760.344 345.365 A 276.999 276.999 0 0 0 1750.504 362.006 A 452.226 452.226 0 0 0 1712.283 456.666 A 552.233 552.233 0 0 0 1701.004 505.006 Z M 2929.004 406.006 L 2929.004 407.006 Q 2931.901 407.971 2939.462 408.005 A 123.935 123.935 0 0 0 2940.004 408.006 A 151.355 151.355 0 0 0 2968.467 405.118 Q 2982.22 402.479 2997.351 397.431 A 308.877 308.877 0 0 0 3016.004 390.506 A 388.89 388.89 0 0 0 3079.455 357.853 A 349.748 349.748 0 0 0 3094.004 348.006 L 3103.004 375.006 Q 3074.004 406.006 3027.504 427.506 A 381.709 381.709 0 0 1 2946.33 454.191 A 439.142 439.142 0 0 1 2926.004 458.006 A 528.307 528.307 0 0 1 2912.388 540.766 A 395.113 395.113 0 0 1 2885.004 617.006 A 314.524 314.524 0 0 1 2849.892 673.944 A 240.621 240.621 0 0 1 2800.004 722.006 Q 2748.004 759.006 2687.004 759.006 A 233.797 233.797 0 0 1 2639.792 754.516 Q 2609.914 748.354 2586.933 733.739 A 134.609 134.609 0 0 1 2570.004 721.006 A 116.641 116.641 0 0 1 2537.421 671.066 Q 2530.666 651.807 2528.291 628.066 A 272.123 272.123 0 0 1 2527.004 601.006 A 389.483 389.483 0 0 1 2533.156 533.96 Q 2538.822 501.573 2549.704 466.392 A 678.639 678.639 0 0 1 2555.004 450.006 Q 2583.004 367.006 2645.004 306.506 A 210.592 210.592 0 0 1 2783.66 246.537 A 278.781 278.781 0 0 1 2801.004 246.006 Q 2916.465 246.006 2927.776 376.194 A 344.88 344.88 0 0 1 2929.004 406.006 Z M 2980.004 576.006 Q 2974.504 603.506 2972.785 623.916 A 204.781 204.781 0 0 0 2972.004 641.006 Q 2972.004 671.943 2979.847 694.905 A 93.848 93.848 0 0 0 3001.504 731.006 A 96.34 96.34 0 0 0 3043.691 756.243 A 124.692 124.692 0 0 0 3079.004 761.006 A 151.284 151.284 0 0 0 3108.043 758.193 A 169.717 169.717 0 0 0 3155.504 741.006 Q 3181.285 727.256 3205.412 696.963 A 318.494 318.494 0 0 0 3227.004 666.006 A 180.689 180.689 0 0 0 3228.542 677.208 Q 3231.201 692.832 3236.425 705.579 A 88.538 88.538 0 0 0 3257.504 737.006 Q 3283.004 761.006 3326.004 761.006 A 167.739 167.739 0 0 0 3391.14 747.433 A 232.532 232.532 0 0 0 3435.504 722.506 A 140.429 140.429 0 0 0 3444.821 715.309 Q 3493.211 674.644 3527.004 576.006 L 3485.004 576.006 A 257.485 257.485 0 0 1 3481.666 586.349 Q 3470.281 619.193 3452.504 640.006 A 84.92 84.92 0 0 1 3445.83 646.999 A 59.612 59.612 0 0 1 3404.004 664.006 A 107.893 107.893 0 0 1 3401.28 663.972 Q 3389.194 663.667 3381.166 660.602 A 27.59 27.59 0 0 1 3372.504 655.506 Q 3363.004 647.006 3363.004 627.006 A 139.154 139.154 0 0 1 3363.195 619.664 A 120.049 120.049 0 0 1 3367.004 595.006 L 3439.004 255.006 L 3295.004 255.006 L 3227.004 576.006 Q 3215.004 617.006 3195.004 640.506 A 83.435 83.435 0 0 1 3190.37 645.528 A 59.5 59.5 0 0 1 3147.004 664.006 Q 3122.98 664.006 3118.195 637.714 A 82.553 82.553 0 0 1 3117.004 623.006 A 125.14 125.14 0 0 1 3117.599 611.031 A 159.848 159.848 0 0 1 3120.004 595.006 L 3192.004 255.006 L 3048.004 255.006 L 2980.004 576.006 Z M 2727.004 669.006 A 47.007 47.007 0 0 0 2749.129 663.163 Q 2762.066 656.33 2775.004 641.506 A 184.435 184.435 0 0 0 2794.186 614.743 Q 2802.525 600.784 2809.959 583.807 A 370.128 370.128 0 0 0 2817.004 566.506 A 446.679 446.679 0 0 0 2835.598 503.029 A 554.821 554.821 0 0 0 2843.004 461.006 A 30.842 30.842 0 0 1 2819.491 441.006 Q 2817.094 434.775 2816.344 426.713 A 83.386 83.386 0 0 1 2816.004 419.006 A 83.178 83.178 0 0 1 2818.191 399.2 Q 2824.238 374.553 2847.004 365.006 Q 2845.468 339.665 2840.394 326.412 A 38.087 38.087 0 0 0 2837.004 319.506 A 25.44 25.44 0 0 0 2822.558 308.838 Q 2816.66 307.006 2809.004 307.006 A 51.096 51.096 0 0 0 2781.516 315.549 Q 2764.855 326.041 2748.73 349.42 A 221.365 221.365 0 0 0 2745.004 355.006 A 369.344 369.344 0 0 0 2715.453 411.368 A 499.164 499.164 0 0 0 2695.004 470.006 Q 2680.086 522.611 2676.881 565.353 A 303.112 303.112 0 0 0 2676.004 588.006 A 329.444 329.444 0 0 0 2676.608 608.775 Q 2678.582 639.873 2687.004 652.506 A 33.745 33.745 0 0 0 2703.771 665.38 Q 2709.796 667.646 2717.365 668.496 A 86.514 86.514 0 0 0 2727.004 669.006 Z M 994.004 838.006 A 287.721 287.721 0 0 1 987.52 863.501 Q 983.919 875.222 979.6 884.891 A 116.946 116.946 0 0 1 969.004 904.006 Q 953.004 927.006 936.004 927.006 Q 920.004 927.006 911.004 917.006 Q 902.004 907.006 902.004 894.006 A 52.48 52.48 0 0 1 913.526 861.931 Q 935.607 832.662 1000.004 809.006 L 994.004 838.006 Z"/></g></svg>