<svg width="399.5199951171875px" height="124.439990234375px" xmlns="http://www.w3.org/2000/svg" viewBox="50.24000244140626 12.780004882812499 399.5199951171875 124.439990234375" style="background: none;" preserveAspectRatio="xMidYMid"><defs><filter id="editing-vr"><feFlood flood-color="#f00" flood-opacity="0.7" result="c1"></feFlood><feFlood flood-color="#00f" flood-opacity="0.7" result="c3"></feFlood><feComposite operator="in" in="c1" in2="SourceAlpha" result="text-c1"></feComposite><feComposite operator="in" in="c3" in2="SourceAlpha" result="text-c3"></feComposite><feOffset in="text-c1" dx="5" dy="-1" result="text1"></feOffset><feOffset in="text-c3" dx="-5" dy="1" result="text3"></feOffset><feBlend in="SourceGraphic" in2="text1" mode="multiply" result="text4"></feBlend><feBlend in="text4" in2="text3" mode="multiply"></feBlend></filter></defs><g filter="url(#editing-vr)"><g transform="translate(112.49501526355743, 104.47000122070312)"><path d="M26.05-29.57L26.05-29.57L26.05-29.57Q27.01-31.49 27.01-33.28L27.01-33.28L27.01-33.28Q27.01-35.07 26.82-36.06L26.82-36.06L26.82-36.06Q26.62-37.06 26.18-37.82L26.18-37.82L26.18-37.82Q25.22-39.49 23.30-39.49L23.30-39.49L23.30-39.49Q20.93-39.49 19.01-37.76L19.01-37.76L19.01-37.76Q16.96-35.97 16.96-33.15L16.96-33.15L16.96-33.15Q16.96-31.36 18.21-29.98L18.21-29.98L18.21-29.98Q19.46-28.61 21.38-27.33L21.38-27.33L21.38-27.33Q23.30-26.05 25.47-24.77L25.47-24.77L25.47-24.77Q27.65-23.49 29.57-21.95L29.57-21.95L29.57-21.95Q33.98-18.43 33.98-13.70L33.98-13.70L33.98-13.70Q33.98-10.50 32.29-7.78L32.29-7.78L32.29-7.78Q30.59-5.06 27.78-3.07L27.78-3.07L27.78-3.07Q21.63 1.28 13.50 1.28L13.50 1.28L13.50 1.28Q6.91 1.28 3.52-0.86L3.52-0.86L3.52-0.86Q0.13-3.01 0.13-6.27L0.13-6.27L0.13-6.27Q0.13-12.10 4.67-13.57L4.67-13.57L4.67-13.57Q5.95-14.02 7.90-14.02L7.90-14.02L7.90-14.02Q9.86-14.02 12.10-13.18L12.10-13.18L12.10-13.18Q11.07-10.56 11.07-8.19L11.07-8.19L11.07-8.19Q11.07-3.07 14.72-3.07L14.72-3.07L14.72-3.07Q17.09-3.07 19.04-4.80L19.04-4.80L19.04-4.80Q20.99-6.53 20.99-8.48L20.99-8.48L20.99-8.48Q20.99-10.43 19.74-11.84L19.74-11.84L19.74-11.84Q18.50-13.25 16.64-14.37L16.64-14.37L16.64-14.37Q14.78-15.49 12.64-16.58L12.64-16.58L12.64-16.58Q10.50-17.66 8.64-19.20L8.64-19.20L8.64-19.20Q4.29-22.72 4.29-28.35L4.29-28.35L4.29-28.35Q4.29-32 6.08-34.85L6.08-34.85L6.08-34.85Q7.87-37.70 10.75-39.62L10.75-39.62L10.75-39.62Q16.51-43.52 23.58-43.52L23.58-43.52L23.58-43.52Q30.66-43.52 34.08-41.41L34.08-41.41L34.08-41.41Q37.50-39.30 37.50-35.71L37.50-35.71L37.50-35.71Q37.50-32.58 35.07-30.59L35.07-30.59L35.07-30.59Q32.96-28.93 30.40-28.93L30.40-28.93L30.40-28.93Q27.84-28.93 26.05-29.57ZM39.87-6.40L39.87-6.40L39.87-6.40Q39.87-8.13 40.77-12.48L40.77-12.48L44.16-29.76L40.38-29.76L40.64-31.68L40.64-31.68Q48.32-33.98 55.74-39.62L55.74-39.62L58.82-39.62L57.28-32.64L62.27-32.64L61.70-29.76L56.77-29.76L53.50-12.48L53.50-12.48Q52.67-8.51 52.67-7.17L52.67-7.17L52.67-7.17Q52.67-4.10 55.36-3.46L55.36-3.46L55.36-3.46Q54.72-1.28 52.42 0L52.42 0L52.42 0Q50.11 1.28 46.85 1.28L46.85 1.28L46.85 1.28Q43.58 1.28 41.73-0.77L41.73-0.77L41.73-0.77Q39.87-2.82 39.87-6.40ZM82.30-7.23L82.30-7.23L82.30-7.23Q78.98-3.78 72.90-3.78L72.90-3.78L72.90-3.78Q65.28-3.78 63.68-9.34L63.68-9.34L63.68-9.34Q63.17-11.01 63.17-12.86L63.17-12.86L63.17-12.86Q63.17-14.72 63.55-16.64L63.55-16.64L66.56-32.64L79.55-33.92L76.03-15.30L76.03-15.30Q75.90-14.46 75.71-13.57L75.71-13.57L75.71-13.57Q75.52-12.67 75.52-11.74L75.52-11.74L75.52-11.74Q75.52-10.82 75.84-10.21L75.84-10.21L75.84-10.21Q76.16-9.60 76.61-9.22L76.61-9.22L76.61-9.22Q77.38-8.70 78.75-8.70L78.75-8.70L78.75-8.70Q80.13-8.70 81.31-10.37L81.31-10.37L81.31-10.37Q82.50-12.03 83.07-14.91L83.07-14.91L86.59-32.64L99.20-33.92L94.40-8.77L94.40-8.77Q92.03 3.52 87.17 8.38L87.17 8.38L87.17 8.38Q84.67 10.88 81.44 11.87L81.44 11.87L81.44 11.87Q78.21 12.86 74.05 12.86L74.05 12.86L74.05 12.86Q67.33 12.86 63.49 10.75L63.49 10.75L63.49 10.75Q59.65 8.64 59.65 5.12L59.65 5.12L59.65 5.12Q59.65 2.50 61.63 0.99L61.63 0.99L61.63 0.99Q63.62-0.51 66.69-0.51L66.69-0.51L66.69-0.51Q69.38-0.51 71.42 0.64L71.42 0.64L71.42 0.64Q72.64 1.34 73.22 2.24L73.22 2.24L73.22 2.24Q71.74 3.52 71.74 5.63L71.74 5.63L71.74 5.63Q71.74 8.45 74.30 8.45L74.30 8.45L74.30 8.45Q78.53 8.45 80.96-1.28L80.96-1.28L80.96-1.28Q81.66-4.16 82.30-7.23ZM116.80-3.52L116.80-3.52L116.80-3.52Q114.82 1.28 108.48 1.28L108.48 1.28L108.48 1.28Q105.28 1.28 103.23-0.96L103.23-0.96L103.23-0.96Q101.57-2.82 101.57-4.93L101.57-4.93L101.57-4.93Q101.57-9.73 103.81-20.22L103.81-20.22L108.48-44.80L121.47-46.08L115.26-13.70L115.26-13.70Q114.18-8.96 114.18-7.30L114.18-7.30L114.18-7.30Q114.18-3.65 116.80-3.52ZM148.16-10.82L148.16-10.82L148.16-10.82Q149.76-9.73 149.76-7.33L149.76-7.33L149.76-7.33Q149.76-4.93 148.54-3.39L148.54-3.39L148.54-3.39Q147.33-1.86 145.34-0.83L145.34-0.83L145.34-0.83Q141.25 1.28 136.83 1.28L136.83 1.28L136.83 1.28Q132.42 1.28 129.82 0.32L129.82 0.32L129.82 0.32Q127.23-0.64 125.50-2.43L125.50-2.43L125.50-2.43Q122.11-5.82 122.11-12.03L122.11-12.03L122.11-12.03Q122.11-21.70 127.36-27.58L127.36-27.58L127.36-27.58Q132.99-33.92 142.78-33.92L142.78-33.92L142.78-33.92Q148.86-33.92 151.87-31.36L151.87-31.36L151.87-31.36Q154.11-29.44 154.11-26.30L154.11-26.30L154.11-26.30Q154.11-15.04 134.66-15.04L134.66-15.04L134.66-15.04Q134.40-13.38 134.40-11.97L134.40-11.97L134.40-11.97Q134.40-9.02 135.71-7.90L135.71-7.90L135.71-7.90Q137.02-6.78 139.46-6.78L139.46-6.78L139.46-6.78Q141.89-6.78 144.48-7.90L144.48-7.90L144.48-7.90Q147.07-9.02 148.16-10.82ZM135.10-17.79L135.10-17.79L135.10-17.79Q139.65-17.79 142.27-20.61L142.27-20.61L142.27-20.61Q144.90-23.30 144.90-27.58L144.90-27.58L144.90-27.58Q144.90-29.06 144.35-29.86L144.35-29.86L144.35-29.86Q143.81-30.66 142.72-30.66L142.72-30.66L142.72-30.66Q141.63-30.66 140.70-30.24L140.70-30.24L140.70-30.24Q139.78-29.82 138.82-28.42L138.82-28.42L138.82-28.42Q136.45-25.22 135.10-17.79ZM169.41 0L155.71 0L163.52-42.05L163.52-42.05Q169.86-42.75 179.10-42.75L179.10-42.75L179.10-42.75Q188.35-42.75 192.64-40.06L192.64-40.06L192.64-40.06Q196.93-37.38 196.93-31.97L196.93-31.97L196.93-31.97Q196.93-26.56 194.14-23.17L194.14-23.17L194.14-23.17Q191.36-19.78 186.56-18.69L186.56-18.69L186.56-18.69Q187.65-13.38 190.14-9.09L190.14-9.09L190.14-9.09Q192.45-5.06 195.14-3.78L195.14-3.78L195.14-3.78Q194.18-1.09 192.22 0.10L192.22 0.10L192.22 0.10Q190.27 1.28 187.49 1.28L187.49 1.28L187.49 1.28Q184.70 1.28 182.53-0.35L182.53-0.35L182.53-0.35Q180.35-1.98 178.62-4.99L178.62-4.99L178.62-4.99Q174.98-11.52 174.59-21.82L174.59-21.82L175.04-21.82L175.04-21.82Q179.78-21.95 182.14-24.42L182.14-24.42L182.14-24.42Q184.51-26.88 184.51-32.06L184.51-32.06L184.51-32.06Q184.51-38.53 179.07-38.78L179.07-38.78L177.66-38.78L177.66-38.78Q177.09-38.78 176.77-38.72L176.77-38.72L169.41 0ZM213.82 1.28L213.82 1.28L213.82 1.28Q199.74 1.28 199.74-11.97L199.74-11.97L199.74-11.97Q199.74-21.38 204.93-27.46L204.93-27.46L204.93-27.46Q210.43-33.92 219.97-33.92L219.97-33.92L219.97-33.92Q226.88-33.92 230.40-30.72L230.40-30.72L230.40-30.72Q233.92-27.52 233.92-20.80L233.92-20.80L233.92-20.80Q233.92-10.56 228.42-4.61L228.42-4.61L228.42-4.61Q223.04 1.28 213.82 1.28ZM215.49-26.56L215.49-26.56L215.49-26.56Q214.72-24.83 214.11-22.24L214.11-22.24L214.11-22.24Q213.50-19.65 212.74-15.55L212.74-15.55L212.74-15.55Q211.97-11.46 211.97-6.40L211.97-6.40L211.97-6.40Q211.97-4.74 212.51-3.65L212.51-3.65L212.51-3.65Q213.06-2.56 214.53-2.56L214.53-2.56L214.53-2.56Q216-2.56 216.93-3.26L216.93-3.26L216.93-3.26Q217.86-3.97 218.56-5.63L218.56-5.63L218.56-5.63Q219.84-8.58 220.86-14.05L220.86-14.05L220.86-14.05Q221.89-19.52 221.98-21.89L221.98-21.89L221.98-21.89Q222.08-24.26 222.08-26.02L222.08-26.02L222.08-26.02Q222.08-27.78 221.57-28.93L221.57-28.93L221.57-28.93Q221.06-30.08 219.62-30.08L219.62-30.08L219.62-30.08Q218.18-30.08 217.22-29.18L217.22-29.18L217.22-29.18Q216.26-28.29 215.49-26.56ZM258.24-2.69L258.24-2.69L258.24-2.69Q255.17 1.28 247.55 1.28L247.55 1.28L247.55 1.28Q243.58 1.28 240.70-1.12L240.70-1.12L240.70-1.12Q237.82-3.52 237.82-6.98L237.82-6.98L237.82-6.98Q237.82-8.90 238.02-9.86L238.02-9.86L242.30-32.64L255.30-33.92L250.62-9.22L250.62-9.22Q250.37-7.81 250.37-6.98L250.37-6.98L250.37-6.98Q250.37-3.26 252.61-3.26L252.61-3.26L252.61-3.26Q255.10-3.26 256.90-6.66L256.90-6.66L256.90-6.66Q257.47-7.74 257.73-9.15L257.73-9.15L262.27-32.64L274.88-33.92L270.14-8.96L270.14-8.96Q269.95-8 269.95-6.98L269.95-6.98L269.95-6.98Q269.95-5.95 270.53-4.83L270.53-4.83L270.53-4.83Q271.10-3.71 272.96-3.46L272.96-3.46L272.96-3.46Q272.58-1.92 271.23-0.90L271.23-0.90L271.23-0.90Q268.42 1.28 265.38 1.28L265.38 1.28L265.38 1.28Q262.34 1.28 260.54 0.19L260.54 0.19L260.54 0.19Q258.75-0.90 258.24-2.69Z" fill="#444"></path></g></g><style>text {
  font-size: 64px;
  font-family: Arial Black;
  dominant-baseline: central;
  text-anchor: middle;
}</style></svg>